<svg viewBox="0 0 64 64" fill="none" stroke="currentColor" stroke-width="2" stroke-linecap="round" stroke-linejoin="round" xmlns="http://www.w3.org/2000/svg" role="img" aria-label="Strain">
  <line x1="32" y1="56" x2="32" y2="32"/>
  <path d="M32 32 C 30 24 32 14 32 8 C 32 14 34 24 32 32 Z"/>
  <path d="M32 32 C 24 28 16 20 14 14 C 18 22 26 30 32 32 Z"/>
  <path d="M32 32 C 40 28 48 20 50 14 C 46 22 38 30 32 32 Z"/>
  <path d="M32 36 C 24 38 14 36 10 32 C 16 40 24 42 32 36 Z"/>
  <path d="M32 36 C 40 38 50 36 54 32 C 48 40 40 42 32 36 Z"/>
</svg>
